<svg width="18" height="18" viewBox="0 0 18 18" fill="none" xmlns="http://www.w3.org/2000/svg">
<path d="M8.99999 13.7062L5.88749 15.5813C5.74999 15.6687 5.60624 15.7062 5.45624 15.6937C5.30624 15.6812 5.17499 15.6313 5.06249 15.5438C4.94999 15.4563 4.86249 15.347 4.79999 15.216C4.73749 15.0845 4.72499 14.9375 4.76249 14.775L5.58749 11.2312L2.83124 8.85C2.70624 8.7375 2.62824 8.60925 2.59724 8.46525C2.56574 8.32175 2.57499 8.18125 2.62499 8.04375C2.67499 7.90625 2.74999 7.79375 2.84999 7.70625C2.94999 7.61875 3.08749 7.5625 3.26249 7.5375L6.89999 7.21875L8.30624 3.88125C8.36874 3.73125 8.46574 3.61875 8.59724 3.54375C8.72824 3.46875 8.86249 3.43125 8.99999 3.43125C9.13749 3.43125 9.27199 3.46875 9.40349 3.54375C9.53449 3.61875 9.63124 3.73125 9.69374 3.88125L11.1 7.21875L14.7375 7.5375C14.9125 7.5625 15.05 7.61875 15.15 7.70625C15.25 7.79375 15.325 7.90625 15.375 8.04375C15.425 8.18125 15.4345 8.32175 15.4035 8.46525C15.372 8.60925 15.2937 8.7375 15.1687 8.85L12.4125 11.2312L13.2375 14.775C13.275 14.9375 13.2625 15.0845 13.2 15.216C13.1375 15.347 13.05 15.4563 12.9375 15.5438C12.825 15.6313 12.6937 15.6812 12.5437 15.6937C12.3937 15.7062 12.25 15.6687 12.1125 15.5813L8.99999 13.7062Z" fill="#DCAC6B"/>
</svg>
